<svg version="1.1" id="Layer_1" xmlns="http://www.w3.org/2000/svg" xmlns:xlink="http://www.w3.org/1999/xlink" x="0px" y="0px"
	 width="100%" viewBox="0 0 320 480" enable-background="new 0 0 320 480" xml:space="preserve">
<path fill="#000000" opacity="1.000000" stroke="none" 
	d="
M170.370697,314.696686 
	C171.460098,317.049896 171.264404,319.706970 174.209976,321.011597 
	C178.711578,313.869904 181.901627,306.068634 185.518250,298.513794 
	C192.177750,284.602692 196.366425,269.795776 199.407364,254.781906 
	C201.474304,244.577087 203.186203,234.003845 201.599533,223.568634 
	C199.818970,211.858093 196.959366,200.312607 184.007050,194.236420 
	C181.659225,200.789078 179.608368,207.163925 177.110916,213.358719 
	C170.166870,230.583008 160.537415,245.876984 145.427414,257.294189 
	C140.226471,261.224060 134.359222,263.386902 128.241806,264.870331 
	C123.246841,266.081635 118.563316,264.573944 115.058739,260.691193 
	C111.460953,256.705170 112.316940,251.911774 113.781349,247.454056 
	C115.008842,243.717453 117.038055,240.244217 118.748505,236.576736 
	C115.747551,234.138535 112.339531,235.570297 109.383804,234.644531 
	C96.727959,230.680466 93.151581,218.724365 100.431358,207.140244 
	C109.984848,191.938019 124.488083,185.100708 140.962662,180.610870 
	C151.386108,177.770142 161.893250,176.336380 172.636261,176.719238 
	C172.371887,161.389954 168.765991,147.941162 154.143845,141.613281 
	C147.165771,138.593475 139.599915,139.248306 132.554733,140.970474 
	C105.775108,147.516632 83.967186,162.502686 65.028252,182.075378 
	C62.830898,184.346283 60.583393,186.544006 59.075943,189.403427 
	C57.236145,192.893250 54.574188,193.430069 51.166561,191.244202 
	C52.542034,184.065033 58.176727,179.787277 62.564598,175.174011 
	C81.504181,155.261475 102.486679,137.907547 129.116211,129.125977 
	C145.000595,123.887825 160.397308,123.881203 172.893661,137.355850 
	C178.520294,143.422943 181.567673,150.743301 183.515320,158.876251 
	C184.901306,164.663803 185.139450,170.333801 185.247177,176.121445 
	C185.294586,178.669250 186.714401,179.915375 188.842026,180.961761 
	C205.283524,189.047867 212.050293,202.917053 213.510376,220.610901 
	C214.312714,230.333969 213.993118,240.022675 212.904297,249.491562 
	C211.634109,260.537720 209.104828,271.504303 205.930191,282.321930 
	C201.674393,296.823700 195.068604,310.300171 189.244431,324.818542 
	C195.138824,323.223969 199.351776,319.199127 204.592514,317.347565 
	C207.253998,316.407257 209.534439,314.958344 211.200470,318.597534 
	C213.201309,322.968079 212.549835,326.292389 208.741180,327.816528 
	C198.970947,331.726410 189.638184,336.440247 180.823608,342.174408 
	C178.738373,343.530975 176.832520,345.161621 174.760162,346.539917 
	C169.305420,350.167755 164.674911,347.850006 163.636124,341.440735 
	C162.186005,332.493500 160.746918,323.526184 158.013702,314.834625 
	C157.317520,312.620789 156.697311,310.219208 157.638947,307.970306 
	C158.591110,305.696259 159.713272,302.957611 162.440796,302.705688 
	C165.393860,302.432953 166.450851,305.022308 167.320206,307.490814 
	C168.144104,309.830231 169.222824,312.079895 170.370697,314.696686 
M110.182228,209.731750 
	C109.884041,210.132690 109.537720,210.506561 109.294792,210.938583 
	C104.829628,218.879379 106.299080,221.650330 115.273407,223.144196 
	C120.535431,224.020111 125.495308,223.473587 130.406570,221.587189 
	C133.885269,220.251038 136.133194,221.320953 137.290070,224.979752 
	C138.267944,228.072418 137.306900,230.436188 135.314407,232.748535 
	C131.826935,236.795853 129.010208,241.323303 126.376999,245.957993 
	C125.562248,247.392029 124.454910,249.035995 125.797752,250.567337 
	C127.219398,252.188553 129.136566,251.633713 130.892914,250.913177 
	C137.932755,248.025101 143.929672,243.762787 148.938431,237.960770 
	C159.234863,226.033661 165.840805,212.269485 170.001404,197.188431 
	C172.073242,189.678574 171.000366,187.916122 163.010498,189.257996 
	C156.159042,190.408661 149.244049,190.248154 142.354141,191.941544 
	C130.084625,194.957123 119.039299,199.427261 110.182228,209.731750 
z"/>
</svg>