<svg width="56" height="44" viewBox="0 0 336 256" fill="none" xmlns="http://www.w3.org/2000/svg">
<g transform="rotate(25, 168, 128)">
<path d="M33 122.044C37.9506 119.21 43.1319 117.194 48.7276 117.024C52.2388 116.916 54.1702 115.415 54.8233 112.208C55.3334 109.704 56.8139 108.796 59.1677 108.652C60.5339 108.568 61.9271 108.384 63.2366 108.001C72.2712 105.358 80.8835 106.002 89.0497 110.976C93.1634 113.481 97.6272 111.737 101.893 111.583C105.665 111.447 109.475 110.373 112.685 108.3C118.855 104.316 125.337 106.338 131.717 106.979C133.993 107.207 136.127 107.788 138.492 107.225C140.699 106.699 143.065 106.568 145.344 106.664C149.981 106.861 154.307 105.844 158.265 103.566C171.692 95.8401 186.052 94.525 201.026 97.0338C207.362 98.0955 208.859 97.3877 211.567 91.5211C216.676 80.453 221.843 69.4457 228.203 58.9907C231.097 54.2319 232.724 48.7022 234.933 43.5254C235.546 42.0871 235.896 40.4119 237.83 40C239.207 41.3072 238.776 42.8881 238.496 44.2541C236.506 53.9583 234.429 63.624 227.946 71.6339C225.91 74.1492 224.821 77.2233 223.817 80.3165C222.257 85.1281 220.585 89.9087 218.792 94.6386C217.589 97.8109 217.621 100.886 218.568 104.085C219.279 106.485 220.489 108.239 223.104 108.703C228.032 109.578 230.728 112.58 231.488 117.463C232.147 121.703 236.055 124.666 235.997 129.249C235.92 135.36 239.187 140.134 242.567 144.859C246.962 151.005 250.635 157.644 258.522 160.473C262.319 161.836 263.469 166.025 264.082 169.873C264.302 171.248 267.069 179.03 267.723 180.534C267.84 190.683 269.723 194.349 269.5 204.5C263.5 203.5 259.187 202.076 261.659 196.632C261.754 196.422 261.842 196.208 261.958 196.009C263.965 192.57 263.779 188.942 261.755 185.817C254.873 175.191 247.095 165.391 234.881 160.362C226.688 156.989 219.465 152.209 213.071 146.059C208.93 142.076 204.606 138.318 199.289 135.788C193.872 133.209 188.897 133.497 184.043 136.895C181.957 138.355 179.769 139.632 177.387 140.519C175.704 141.146 174.466 142.198 173.323 143.571C168.164 149.77 163.058 156.011 155.355 159.39C152.595 160.6 151.464 163.144 151.421 166.169C151.313 173.877 149.533 181.162 146.133 188.112C144.677 191.09 143.012 194.212 142.962 197.542C142.901 201.581 140.096 204.056 138.079 206.665C134.843 210.85 130.202 213.642 124.953 215.103C123.542 215.103 122.13 215.103 120.209 214.962C116.813 212.296 117.711 208.984 122.167 207.189C128.475 204.647 131.696 199.839 132.965 193.5C133.83 189.179 135.106 185.041 137.035 181.077C138.723 177.609 139.51 173.92 139.267 170.035C139.088 167.177 137.906 165.279 134.851 164.766C131.457 164.196 128.018 163.698 124.737 162.709C119.078 161.003 113.541 160.082 107.698 162C105.515 162.717 102.876 161.672 100.578 163.338C101.11 165.02 100.447 166.938 101.944 168.452C104.663 171.2 105.282 175.077 107.018 178.36C107.855 179.943 107.293 181.984 106.501 183.719C105.477 185.96 103.968 186.71 101.488 185.822C98.0407 184.588 96.1109 181.947 94.5947 178.928C92.1817 174.124 90.832 168.847 87.292 164.52C85.5669 162.411 86.9182 159.88 88.8515 158.101C90.2242 156.838 91.9743 156.186 93.6654 155.444C97.1414 153.92 100.606 152.368 104.046 150.764C106.12 149.797 106.487 148.479 104.672 146.815C102.506 144.83 100.219 143.426 97.0723 143.259C89.9668 142.883 82.9226 141.706 75.8484 141.042C68.4857 140.351 61.1519 137.759 53.6345 139.994C52.9274 140.204 52.2311 139.505 51.7011 139.565C48.8805 139.883 47.5675 137.087 45.211 136.603C42.5544 136.056 40.0933 134.75 37.2244 134.943C35.6235 135.051 35.1328 133.634 34.7942 132.121C34.227 129.588 34.9058 126.744 33 124.533C33 123.795 33 123.058 33 122.044Z" fill="black"/>
<path d="M191.616 168.534C188.922 164.033 184.954 160.901 182.124 156.822C179.879 153.588 177.986 150.208 176.452 146.584C175.653 144.698 175.818 143.585 177.937 142.957C180.616 142.163 182.877 140.524 185.223 139.071C190.858 135.581 195.94 135.75 201.284 139.613C202.202 140.277 203.575 141.024 202.657 142.315C199.338 146.99 201.75 152.192 201.105 157.101C200.509 161.63 202.919 164.924 205.839 168.075C212.436 175.193 212.74 177.335 206.292 184.4C202.418 188.646 199.765 193.742 195.943 197.841C192.171 201.886 186.525 201.351 181.369 201.185C180.302 201.151 179.198 200.311 179.616 199.101C180.47 196.632 181.269 194.054 183.994 192.801C194.059 188.172 196.625 182.04 192.89 171.637C192.541 170.664 192.127 169.715 191.616 168.534Z" fill="black"/>
<path d="M272.5 198C272.983 200.417 271 204.5 269.5 204.5L267.5 180C269 185 272.1 196 272.5 198Z" fill="black"/>
</g>
</svg>
